<svg viewBox="0 0 602 530" fill="none" xmlns="http://www.w3.org/2000/svg">
<g clip-path="url(#clip0)">
<rect width="602" height="530" fill="white"/>
<rect y="23" width="602" height="1" fill="#C4C4C4"/>
<rect x="29.722" y="579.905" width="644" height="2" transform="rotate(-91.9079 29.722 579.905)" fill="#FF0000" fill-opacity="0.24"/>
<rect x="33.722" y="579.905" width="644" height="2" transform="rotate(-91.9079 33.722 579.905)" fill="#FF0000" fill-opacity="0.24"/>
<rect y="53" width="602" height="1" fill="#C4C4C4"/>
<rect y="83" width="602" height="1" fill="#C4C4C4"/>
<rect y="113" width="602" height="1" fill="#C4C4C4"/>
<rect y="143" width="602" height="1" fill="#C4C4C4"/>
<rect y="173" width="602" height="1" fill="#C4C4C4"/>
<rect y="203" width="602" height="1" fill="#C4C4C4"/>
<rect y="233" width="602" height="1" fill="#C4C4C4"/>
<rect y="263" width="602" height="1" fill="#C4C4C4"/>
<rect y="293" width="602" height="1" fill="#C4C4C4"/>
<rect y="323" width="602" height="1" fill="#C4C4C4"/>
<rect y="353" width="602" height="1" fill="#C4C4C4"/>
<rect y="383" width="602" height="1" fill="#C4C4C4"/>
<rect y="413" width="602" height="1" fill="#C4C4C4"/>
<rect y="443" width="602" height="1" fill="#C4C4C4"/>
<rect y="473" width="602" height="1" fill="#C4C4C4"/>
<rect y="503" width="602" height="1" fill="#C4C4C4"/>
</g>
<defs>
<clipPath id="clip0">
<rect width="602" height="530" fill="white"/>
</clipPath>
</defs>
</svg>
